/* XPM */
static char *result[] = {
/* columns rows colors chars-per-pixel */
"64 64 153 2 ",
"   c #3A2514",
".  c #3F2916",
"X  c #3A2D1C",
"o  c #4F320D",
"O  c #58380D",
"+  c #432B16",
"@  c #492F16",
"#  c #452D19",
"$  c #482F19",
"%  c #4C321C",
"&  c #52361C",
"*  c #56391E",
"=  c #5C3C1C",
"-  c #633F0E",
";  c #453C29",
":  c #563922",
">  c #5B3C22",
",  c #654316",
"<  c #6D4616",
"1  c #61401E",
"2  c #6D471A",
"3  c #734B15",
"4  c #794E18",
"5  c #7B591D",
"6  c #5E4026",
"7  c #5A4926",
"8  c #604126",
"9  c #64452A",
"0  c #67482D",
"q  c #69492E",
"w  c #6E5122",
"e  c #68552C",
"r  c #775924",
"t  c #765926",
"y  c #6C4C31",
"u  c #646947",
"i  c #747B55",
"p  c #865617",
"a  c #885716",
"s  c #8C5C15",
"d  c #8C5B18",
"f  c #915E1A",
"g  c #8E691F",
"h  c #976313",
"j  c #9C6416",
"k  c #93641D",
"l  c #986719",
"z  c #A46917",
"x  c #A86C16",
"c  c #A76D19",
"v  c #A86E19",
"b  c #AF7115",
"n  c #AD7318",
"m  c #B37517",
"M  c #B87718",
"N  c #BA7A19",
"B  c #8A6A27",
"V  c #85652A",
"C  c #916E2A",
"Z  c #967629",
"A  c #AA7A22",
"S  c #C17E19",
"D  c #7C9844",
"F  c #798153",
"G  c #BE851E",
"H  c #9A9326",
"J  c #8E9234",
"K  c #9B9830",
"L  c #A3832D",
"P  c #BF8822",
"I  c #B88A28",
"U  c #A99A25",
"Y  c #B48C30",
"T  c #BB9731",
"R  c #93AE39",
"E  c #9EB032",
"W  c #B8A428",
"Q  c #BFA828",
"!  c #A9B632",
"~  c #BAB332",
"^  c #B3BD33",
"/  c #CB8217",
"(  c #C2821A",
")  c #D48817",
"_  c #D08518",
"`  c #DE8F18",
"'  c #EB991A",
"]  c #F29F1B",
"[  c #F6A51F",
"{  c #F9A71F",
"}  c #CB9223",
"|  c #C1912B",
" . c #C99B2C",
".. c #C29D32",
"X. c #C4AC28",
"o. c #DEA62B",
"O. c #CBB129",
"+. c #D4B72A",
"@. c #D4B82A",
"#. c #C5A134",
"$. c #CFA432",
"%. c #D4AA36",
"&. c #DBB137",
"*. c #E5A325",
"=. c #E9AD2B",
"-. c #F5AB24",
";. c #F5B72D",
":. c #E5B434",
">. c #E9B734",
",. c #EFBC34",
"<. c #F3BA31",
"1. c #AFC43A",
"2. c #BEC434",
"3. c #C1CD39",
"4. c #D7C735",
"5. c #D7CA37",
"6. c #C1D03C",
"7. c #F6C235",
"8. c #F9C335",
"9. c #F4CB3F",
"0. c #8EAC4A",
"q. c #88B243",
"w. c #8EBC43",
"e. c #A7A056",
"r. c #9ABF64",
"t. c #96AA76",
"y. c #98AD78",
"u. c #94C047",
"i. c #95CC43",
"p. c #96C34E",
"a. c #97D043",
"s. c #99D443",
"d. c #9CDB43",
"f. c #9FDA4C",
"g. c #9AC957",
"h. c #A0DD49",
"j. c #A4DD53",
"k. c #A5DB5A",
"l. c #A3E04D",
"z. c #ABE557",
"x. c #ABE658",
"c. c #ABDA67",
"v. c #A9D46A",
"b. c #A7C57C",
"n. c #B4DA7E",
"m. c #D9D641",
"M. c #FFD541",
"N. c #A9B48C",
"B. c #ABC580",
"V. c #AEC882",
"C. c #B2CA81",
"Z. c #B6D18B",
"A. c #C2E98B",
/* pixels */
"d.d.d.d.d.d.d.d.d.d.d.d.d.d.d.u.0.s.d.d.d.d.d.d.d.d.d.d.d.d.h.z.h.d.d.d.d.d.d.d.d.d.d.d.d.d.w.0.s.l.x.h.d.d.d.d.d.d.d.d.d.d.d.A.",
"d.d.d.d.d.d.d.d.d.d.d.d.d.d.d.d.d.d.d.d.d.d.d.d.d.d.d.d.d.d.h.d.d.d.d.d.d.d.d.d.d.d.d.d.d.d.d.d.1.d.d.d.d.d.d.d.d.d.d.d.d.d.d.A.",
"s.d.d.d.d.d.d.d.d.d.d.d.d.d.d.d.d.d.d.d.d.d.d.d.d.d.d.d.d.d.d.d.d.d.d.d.d.d.d.d.d.d.d.d.d.d.d.d.d.d.d.d.d.d.d.d.d.d.d.d.d.d.d.A.",
"d.d.d.d.d.d.d.d.d.d.d.d.d.d.d.d.d.d.d.d.d.d.d.d.d.d.d.d.d.d.d.d.d.d.d.d.d.d.d.d.d.d.d.d.d.d.d.d.d.d.d.d.d.d.d.d.d.d.d.d.d.d.d.A.",
"d.d.d.d.d.d.d.d.d.d.d.d.d.d.d.d.d.d.d.d.d.d.d.d.d.d.d.d.d.d.d.d.d.d.d.d.d.d.d.d.d.d.d.d.d.d.d.d.d.d.d.d.d.d.d.d.d.d.d.d.d.d.d.A.",
"d.d.d.d.d.d.d.d.d.d.d.d.d.d.d.d.d.d.d.d.d.d.d.d.d.d.d.d.d.d.d.d.d.d.d.d.d.d.d.d.d.d.d.d.d.d.d.d.d.d.d.d.d.d.d.d.d.d.d.d.d.d.d.A.",
"s.d.d.d.d.d.d.d.d.d.d.d.d.d.d.d.d.d.d.d.d.d.d.d.d.d.d.d.d.d.d.d.d.d.d.d.d.d.d.d.d.d.d.d.d.d.d.d.d.d.d.d.d.d.d.d.d.d.d.d.d.d.d.A.",
"a.d.d.d.d.d.d.d.d.d.d.d.d.d.d.d.d.d.d.d.d.d.d.d.d.d.d.d.d.d.d.d.d.d.d.d.d.d.d.d.d.d.d.d.d.d.d.d.d.d.d.d.d.d.d.d.d.d.d.d.d.d.d.A.",
"s.d.d.d.d.d.d.d.d.d.d.d.d.d.d.d.d.d.d.d.d.d.d.d.d.d.d.d.d.d.d.d.d.d.d.d.d.d.d.d.d.d.d.d.d.d.d.d.d.d.d.d.d.d.d.d.d.d.d.d.d.d.d.A.",
"d.d.d.d.d.d.d.d.d.d.d.d.d.d.d.d.d.d.d.d.d.d.d.d.d.d.d.d.d.d.d.d.d.d.d.d.d.d.d.d.d.d.d.d.d.d.d.d.d.d.d.d.d.d.d.d.d.d.d.d.d.d.d.A.",
"d.d.d.d.d.d.d.d.d.d.d.d.d.d.d.d.d.d.d.d.d.d.d.d.d.d.d.d.d.d.d.d.d.d.d.d.d.d.d.d.d.d.d.d.d.d.d.d.d.d.d.d.d.d.d.d.d.d.d.d.d.d.d.A.",
"d.d.d.d.d.d.d.d.d.d.d.d.d.d.d.d.d.d.d.d.d.d.d.d.d.d.d.d.d.d.d.d.d.d.d.d.d.d.d.d.d.d.d.d.d.d.d.d.d.d.d.d.d.d.d.d.d.d.d.d.d.d.d.A.",
"d.d.d.d.d.d.d.d.d.d.d.d.d.d.d.d.d.d.d.d.d.d.d.d.d.d.d.d.d.d.d.d.d.d.d.d.d.d.d.d.d.d.d.d.d.d.d.d.d.d.d.d.d.d.d.d.d.d.d.d.d.d.d.A.",
"d.d.d.d.d.d.d.d.d.d.d.d.d.d.d.d.d.d.d.d.d.d.d.d.d.d.d.d.d.d.d.d.d.d.d.d.d.d.d.d.d.d.d.d.d.d.d.d.d.d.d.d.d.d.d.d.d.d.d.d.d.d.d.A.",
"d.d.d.d.d.d.d.d.d.d.d.d.d.d.d.d.d.d.d.d.d.d.d.d.d.d.d.d.d.d.d.d.d.d.d.d.d.d.d.d.d.d.d.d.d.d.d.d.d.d.d.d.d.d.d.d.d.d.d.d.d.d.d.A.",
"d.d.d.d.d.d.d.d.d.d.d.d.d.d.d.d.d.d.d.d.d.d.d.d.d.d.d.d.d.d.d.d.d.d.d.d.d.d.d.d.d.d.d.d.d.d.d.d.d.d.d.d.d.d.d.d.d.d.d.d.d.d.d.A.",
"i.d.d.d.d.d.d.d.d.d.d.d.d.d.d.d.f.l.j.j.j.h.h.h.d.d.d.d.d.d.s.h.d.d.d.d.d.d.d.d.d.d.h.j.j.z.j.f.d.d.d.d.d.d.d.d.d.d.d.d.d.d.d.A.",
"s.d.d.d.d.d.d.d.d.d.d.d.d.d.d.f.c.V.C.C.b.v.j.j.j.k.j.j.j.j.j.j.j.j.j.j.j.j.j.k.j.j.v.V.C.C.b.v.d.d.d.d.d.d.d.d.d.d.d.d.d.d.d.A.",
"d.d.d.d.d.d.d.d.d.d.d.d.d.d.d.k.e.h h s , u b.C.V.V.C.C.V.V.V.B.V.V.V.V.V.V.V.V.V.b.F o s h l K d.d.d.d.d.d.d.d.d.d.d.d.d.d.d.A.",
"d.d.d.d.d.d.d.d.d.d.d.d.d.d.d.! ( { ' ( <   + + # % $ % % % # ; # + % + + ; % $ . + + , M ] { +.d.d.d.d.d.d.d.d.d.d.d.d.d.d.d.A.",
"d.d.d.d.d.d.d.d.d.d.d.d.d.d.d.6.<.;.} 2 & > 8 8 9 y y 9 y 8 9 y 0 0 y 0 0 0 y 0 8 8 8 > 2 P 7.5.d.d.d.d.d.d.d.d.d.d.d.d.d.d.d.A.",
"d.d.d.d.d.d.d.d.d.d.d.d.d.d.d.6.M.M.L : * > 8 0 y y q 9 q 9 9 y y y y y 0 8 9 0 0 y y > * C 9.m.d.d.d.d.d.d.d.d.d.d.d.d.d.d.d.A.",
"w.d.d.d.d.d.d.d.d.d.d.d.d.d.d.6.M.$.t > 8 8 8 0 y y y y y y y y y 0 y y 0 9 0 0 0 y 0 8 6 t #.5.d.d.d.d.d.d.d.d.d.d.d.d.d.d.s.Z.",
"D s.d.d.d.d.d.d.d.d.d.d.d.d.d.3.<.A % 8 9 0 y y y y y y y y y q 9 9 0 y y y y y y y y 0 8 = B 5.d.d.d.d.d.d.d.d.d.d.d.d.d.d.w.N.",
"s.d.d.d.d.d.d.d.d.d.d.d.d.d.d.3.-.v $ > 8 0 y y y 0 y y y y y 9 8 9 9 y y y y 0 y y y 0 6 : s @.d.d.d.d.d.d.d.d.d.d.d.d.d.d.d.A.",
"d.d.d.d.d.d.d.d.d.d.d.d.d.d.d.3.[ c $ > 9 y y y 0 9 0 y y y y y y 0 y y y y 0 9 9 y y 0 8 * s +.d.d.d.d.d.d.d.d.d.d.d.d.d.d.d.A.",
"d.d.d.d.d.d.d.d.d.d.d.d.d.d.d.3.] v # : > 0 y y 0 9 0 y q 8 9 y y 0 9 9 0 0 0 9 0 y y 0 6 & s +.d.d.d.d.d.d.d.d.d.d.d.d.d.d.d.A.",
"w.d.d.d.d.d.d.d.d.d.d.d.d.d.d.~ ] x # > 8 9 0 y y y y y q 9 9 y y 0 9 0 0 0 y 0 y y y y 8 & k +.d.d.d.d.d.d.d.d.d.d.d.d.d.d.a.Z.",
"D s.d.d.d.d.d.d.d.d.d.d.d.d.d.3.] v + : : 8 9 0 y 0 0 y y y y y y y y y y y 0 9 0 y q q 8 & s +.d.d.d.d.d.d.d.d.d.d.d.d.d.d.w.N.",
"s.d.d.d.d.d.d.d.d.d.d.d.d.d.s.3.] x + $ : 8 8 0 0 9 9 0 y q y y y y y y y y 9 6 0 q 0 6 6 o s +.d.d.d.d.d.d.d.d.d.d.d.d.d.d.d.A.",
"d.d.d.d.d.d.d.d.d.d.d.d.d.d.d.2.' j + & > 8 y 0 0 8 8 9 9 9 w y w q q 8 y 9 8 9 9 6 6 & @ @ 4 O.d.d.d.d.d.d.d.d.d.d.d.d.d.d.d.A.",
"d.d.d.d.d.d.d.d.d.d.d.d.d.d.d.3.' j $ & : > 8 8 6 6 8 8 8 V Y Y I I C 8 8 > * > > * & & + @ g Q d.d.d.d.d.d.d.d.d.d.d.d.d.d.d.A.",
"d.d.d.d.d.d.d.d.d.d.d.d.d.d.d.^ ` M 4 & = = = 8 1 1 1 1 V %.7.=.=.<.&.C = 8 = 1 1 1 1 = & < m X.s.d.d.d.d.d.d.d.d.d.d.d.d.d.d.A.",
"s.d.d.d.d.d.d.d.d.d.d.d.d.d.d.^ ) _ b p f f k f f d k k | 8.} a a P 8.$.f f f f f f f d a x _ X.d.d.d.d.d.d.d.d.d.d.d.d.d.d.d.A.",
"s.d.d.d.d.d.d.d.d.d.d.d.d.d.d.! b z p p a a a p p p p s I ;.G - O m ;...p a d a p p p p p p h U d.d.d.d.d.d.d.d.d.d.d.d.d.d.d.A.",
"d.d.d.d.d.d.d.d.d.d.d.d.d.d.h.E h 3 + # $ % % % % % & @ B ,.*.N b *.:.A # $ & $ $ % % % + + , H d.d.d.d.d.d.d.d.d.d.d.d.d.d.d.A.",
"d.d.d.d.d.d.d.d.d.d.d.d.d.d.d.2. .g + & > 8 9 8 8 8 8 > w T >.o.o.:...r : 9 6 : > > 8 6 & % 5 ~ d.d.d.d.d.d.d.d.d.d.d.d.d.d.d.A.",
"d.d.d.d.d.d.d.d.d.d.d.d.d.d.d.l.<.A % > 9 y y y y q 8 6 : w Z Z Z Z r : 0 q 0 8 8 q y q > & k 4.d.d.d.d.d.d.d.d.d.d.d.d.d.d.d.A.",
"s.d.d.d.d.d.d.d.d.d.d.d.d.d.h.2.-.c + > 8 8 0 y y 0 8 8 8 > % % % % : 0 0 9 9 9 y q q 9 > & d @.d.d.d.d.d.d.d.d.d.d.d.d.d.d.d.A.",
"s.d.d.d.d.d.d.d.d.d.d.d.d.d.d.2.] n + * : > 8 q y 0 6 0 y 0 6 6 8 8 9 q 0 6 6 9 9 8 8 > * % f @.d.d.d.d.d.d.d.d.d.d.d.d.d.d.d.A.",
"1.d.d.d.d.d.d.d.d.d.d.d.d.d.d.2.] v + $ & : 6 6 6 6 & * 6 6 6 6 6 6 6 6 8 8 8 6 > * & * % @ s @.d.d.d.d.d.d.d.d.d.d.d.d.d.d.d.A.",
"d.d.d.d.d.d.d.d.d.d.d.d.d.d.d.2.' n +   + $ $ * & % @ % * & $ X $ $ $ # % & % $ $ $ $ # + @ h @.d.d.d.d.d.d.d.d.d.d.d.d.d.d.d.A.",
"d.d.d.d.d.d.d.d.d.d.d.d.d.d.d.^ ` S 3 +     + + . .     +               + + +           + < M O.d.d.d.d.d.d.d.d.d.d.d.d.d.d.d.A.",
"d.d.d.d.d.d.d.d.d.d.d.d.d.d.d.! / S x - X ; ; ; ; ; ; 7 7 ; ; ; ; ; ; ; ; ; ; ; ; ; ; # o z / W d.d.d.d.d.d.d.d.d.d.d.d.d.d.d.A.",
"d.d.d.d.d.d.d.d.d.d.d.d.d.d.d.R V V V e u y.y.y.y.y.y.y.y.y.y.y.t.y.y.y.y.y.y.y.t.y.t.i 7 B V J d.d.d.d.d.d.d.d.d.d.d.d.d.d.d.A.",
"d.d.d.d.d.d.d.d.d.d.d.d.d.d.d.g.y.y.y.y.B.C.n.n.n.n.n.n.n.n.n.n.n.n.n.n.n.n.n.n.n.Z.n.b.y.y.y.r.d.d.d.d.d.d.d.d.d.d.d.d.d.d.d.A.",
"d.d.d.d.d.d.d.d.d.d.d.d.d.d.d.k.n.n.n.n.n.n.n.n.n.n.n.n.n.n.n.n.n.n.n.n.n.n.n.n.n.n.n.n.n.n.n.c.d.d.d.d.d.d.d.d.d.d.d.d.d.d.d.A.",
"d.d.d.d.d.d.d.d.d.d.d.d.d.d.d.z.n.n.n.n.n.n.n.n.n.n.n.n.n.n.n.n.n.n.n.n.n.n.n.n.n.n.n.n.n.n.n.c.d.d.d.d.d.d.d.d.d.d.d.d.d.d.d.A.",
"h.d.d.d.d.d.d.d.d.d.d.d.d.d.d.d.d.d.d.d.d.d.d.d.d.d.d.d.d.d.d.d.d.d.d.d.d.d.d.d.d.d.d.d.d.d.d.d.d.d.d.d.d.d.d.d.d.d.d.d.d.d.d.A.",
"x.d.d.d.d.d.d.d.d.d.d.d.d.d.d.d.d.d.d.d.d.d.d.d.d.d.d.d.d.d.d.d.d.d.d.d.d.d.d.d.d.d.d.d.d.d.d.d.d.d.d.d.d.d.d.d.d.d.d.d.d.d.d.A.",
"d.d.d.d.d.d.d.d.d.d.d.d.d.d.d.d.d.d.d.d.d.d.d.d.d.d.d.d.d.d.d.d.d.d.d.d.d.d.d.d.d.d.d.d.d.d.d.d.d.d.d.d.d.d.d.d.d.d.d.d.d.d.d.A.",
"u.d.d.d.d.d.d.d.d.d.d.d.d.d.d.d.d.d.d.d.d.d.d.d.d.d.d.d.d.d.d.d.d.d.d.d.d.d.d.d.d.d.d.d.d.d.d.d.d.d.d.d.d.d.d.d.d.d.d.d.d.d.i.Z.",
"D d.d.d.d.d.d.d.d.d.d.d.d.d.d.d.d.d.d.d.d.d.d.d.d.d.d.d.d.d.d.d.d.d.d.d.d.d.d.d.d.d.d.d.d.d.d.d.d.d.d.d.d.d.d.d.d.d.d.d.d.d.w.N.",
"x.h.d.d.d.d.d.d.d.d.d.d.d.d.d.d.d.d.d.d.d.d.d.d.d.d.d.d.d.d.d.d.d.d.d.d.d.d.d.d.d.d.d.d.d.d.d.d.d.d.d.d.d.d.d.d.d.d.d.d.d.d.d.A.",
"d.d.d.d.d.d.d.d.d.d.d.d.d.d.d.d.d.d.d.d.d.d.d.d.d.d.d.d.d.d.d.d.d.d.d.d.d.d.d.d.d.d.d.d.d.d.d.d.d.d.d.d.d.d.d.d.d.d.d.d.d.d.d.A.",
"d.d.d.d.d.d.d.d.d.d.d.d.d.d.d.d.d.d.d.d.d.d.d.d.d.d.d.d.d.d.d.d.d.d.d.d.d.d.d.d.d.d.d.d.d.d.d.d.d.d.d.d.d.d.d.d.d.d.d.d.d.d.d.A.",
"d.d.d.d.d.d.d.d.d.d.d.d.d.d.d.d.d.d.d.d.d.d.d.d.d.d.d.d.d.d.d.d.d.d.d.d.d.d.d.d.d.d.d.d.d.d.d.d.d.d.d.d.d.d.d.d.d.d.d.d.d.d.d.A.",
"d.d.d.d.d.d.d.d.d.d.d.d.d.d.d.d.d.d.d.d.d.d.d.d.d.d.d.d.d.d.d.d.d.d.d.d.d.d.d.d.d.d.d.d.d.d.d.d.d.d.d.d.d.d.d.d.d.d.d.d.d.d.d.A.",
"d.d.d.d.d.d.d.d.d.d.d.d.d.d.d.d.d.d.d.d.d.d.d.d.d.d.d.d.d.d.d.d.d.d.d.d.d.d.d.d.d.d.d.d.d.d.d.d.d.d.d.d.d.d.d.d.d.d.d.d.d.d.d.A.",
"d.d.d.d.d.d.d.d.d.d.d.d.d.d.d.d.d.d.d.d.d.d.d.d.d.d.d.d.d.d.d.d.d.d.d.d.d.d.d.d.d.d.d.d.d.d.d.d.d.d.d.d.d.d.d.d.d.d.d.d.d.d.d.A.",
"d.d.d.d.d.d.d.d.d.d.d.d.d.d.d.d.d.d.d.d.d.d.d.d.d.d.d.d.d.d.d.d.d.d.d.d.d.d.d.d.d.d.d.d.d.d.d.d.d.d.d.d.d.d.d.d.d.d.d.d.d.d.d.A.",
"d.d.d.d.d.d.d.d.d.d.d.d.d.d.d.d.d.d.d.d.d.d.d.d.d.d.d.d.d.d.d.d.d.d.d.d.d.d.d.d.d.d.d.d.d.d.d.d.d.d.d.d.d.d.d.d.d.d.d.d.d.d.d.A.",
"f.d.d.d.h.l.d.d.d.d.d.d.d.d.d.d.d.d.d.d.d.d.d.d.d.d.d.d.d.d.d.d.d.d.d.d.d.d.d.d.d.d.d.d.d.d.d.d.d.d.d.d.d.d.d.d.d.d.d.d.d.d.d.A.",
"x.h.i.q.p.x.d.d.d.d.d.d.h.l.d.d.d.l.l.d.d.d.d.d.d.l.d.d.d.d.d.d.d.d.d.d.d.d.d.d.h.l.d.h.l.d.d.d.d.d.d.d.d.d.d.d.d.d.i.q.w.s.d.A."
};
