/* XPM */
static char *result[] = {
/* columns rows colors chars-per-pixel */
"64 64 204 2 ",
"   c #2C1918",
".  c #3C1D1C",
"X  c #342E1B",
"o  c #211D23",
"O  c #3D2222",
"+  c #333337",
"@  c #472019",
"#  c #76261D",
"$  c #77361E",
"%  c #432728",
"&  c #4E362A",
"*  c #543A26",
"=  c #452D31",
"-  c #47333B",
";  c #553230",
":  c #7C2C27",
">  c #723431",
",  c #554C35",
"<  c #6F4222",
"1  c #57702F",
"2  c #5D7C2A",
"3  c #546639",
"4  c #637F2B",
"5  c #637531",
"6  c #363845",
"7  c #463949",
"8  c #3D455C",
"9  c #3E4766",
"0  c #44464B",
"q  c #46495C",
"w  c #574E56",
"e  c #485257",
"r  c #704D4E",
"t  c #654757",
"y  c #576953",
"u  c #5D7558",
"i  c #61795C",
"p  c #444D6D",
"a  c #484E68",
"s  c #585A6B",
"d  c #444F70",
"f  c #4A5473",
"g  c #545A75",
"h  c #6C5B6D",
"j  c #745969",
"k  c #53656F",
"l  c #5C6269",
"z  c #576276",
"x  c #5F7173",
"c  c #676B6D",
"v  c #677C69",
"b  c #7B736B",
"n  c #656879",
"m  c #76697A",
"M  c #63757B",
"N  c #892B1E",
"B  c #983428",
"V  c #843535",
"C  c #953B33",
"Z  c #A63925",
"A  c #B33D24",
"S  c #B7791B",
"D  c #9F4422",
"F  c #9C463A",
"G  c #A44F2D",
"H  c #BB4525",
"J  c #BB592E",
"K  c #907031",
"L  c #BE6D32",
"P  c #A87235",
"I  c #BC7235",
"U  c #C77B1E",
"Y  c #C44524",
"T  c #C64D28",
"R  c #CA592D",
"E  c #C46F34",
"W  c #D16331",
"Q  c #D77036",
"!  c #8B4343",
"~  c #99544C",
"^  c #AA5845",
"/  c #99705E",
"(  c #AD7254",
")  c #A37E63",
"_  c #C06643",
"`  c #698534",
"'  c #6D8C30",
"]  c #6D9934",
"[  c #6B913C",
"{  c #759539",
"}  c #77A43C",
"|  c #7CAC3D",
" . c #6B8B42",
".. c #799044",
"X. c #698658",
"o. c #798758",
"O. c #7CA743",
"+. c #7CA156",
"@. c #728568",
"#. c #738B6B",
"$. c #739065",
"%. c #6D8477",
"&. c #768679",
"*. c #97953B",
"=. c #B58A35",
"-. c #81B53A",
";. c #87BD3E",
":. c #EB8B1D",
">. c #92CE3F",
",. c #95D03F",
"<. c #889B4B",
"1. c #869550",
"2. c #B6944C",
"3. c #85AE47",
"4. c #96A142",
"5. c #84B545",
"6. c #8BB943",
"7. c #8BB45C",
"8. c #93B759",
"9. c #95BA5B",
"0. c #899167",
"q. c #829675",
"w. c #85A76A",
"e. c #8DB463",
"r. c #8FB36D",
"t. c #96BD68",
"y. c #8DAA70",
"u. c #92AC77",
"i. c #98BC73",
"p. c #C99C5A",
"a. c #DCAA62",
"s. c #95C948",
"d. c #95D141",
"f. c #98D443",
"g. c #9CDB43",
"h. c #96D04A",
"j. c #9AD54A",
"k. c #9EDB4C",
"l. c #97C95A",
"z. c #9DD752",
"x. c #9DD15C",
"c. c #A1DF4A",
"v. c #A1DB55",
"b. c #A3D55A",
"n. c #A4DB5B",
"m. c #A8DF5A",
"M. c #A5E14F",
"N. c #AAE15D",
"B. c #AFE95D",
"V. c #9BC867",
"C. c #9FD162",
"Z. c #9DC377",
"A. c #A0CE6D",
"S. c #A4DA63",
"D. c #A6D866",
"F. c #A3D56B",
"G. c #A6D96A",
"H. c #A1CA75",
"J. c #A7D573",
"K. c #BBED75",
"L. c #5A6583",
"P. c #5C6887",
"I. c #636D86",
"U. c #7B6F82",
"Y. c #677389",
"T. c #777686",
"R. c #687693",
"E. c #727C96",
"W. c #8A7F85",
"Q. c #7A8A8F",
"!. c #798597",
"~. c #7987A0",
"^. c #7D8AA4",
"/. c #858B8B",
"(. c #889988",
"). c #838A98",
"_. c #989E94",
"`. c #99AC89",
"'. c #A3B097",
"]. c #818FA6",
"[. c #8492AB",
"{. c #8894AB",
"}. c #8E99A8",
"|. c #979DAB",
" X c #8A99B2",
".X c #909FB6",
"XX c #909FB8",
"oX c #9CA7A6",
"OX c #94A3BA",
"+X c #99A5B8",
"@X c #A4ACB7",
"#X c #B7BDB3",
"$X c #B9C1B8",
"%X c #9FACC2",
"&X c #A6B1C5",
"*X c #B1BCCD",
"=X c #B4BFD1",
"-X c #B7C1D2",
";X c #C2C9D4",
":X c #CDCFD1",
">X c #C6CEDC",
",X c #CBD2DB",
"<X c #D3D9E2",
"1X c #DDE2E8",
/* pixels */
"m.g.g.g.g.g.g.g.g.g.g.g.g.g.g.g.3.s.c.,.g.g.g.g.g.g.g.g.g.g.g.B.M.g.g.g.g.g.g.g.g.g.g.g.g.g.g.4.d.g.B.M.g.g.g.g.g.g.g.g.g.g.g.g.",
"n.g.g.g.g.g.g.g.g.g.g.g.g.g.g.g.g.g.,.c.g.g.g.g.g.g.g.g.g.g.g.g.g.g.g.g.g.g.g.g.g.g.g.g.g.g.g.g.g.g.g.,.g.g.g.g.g.g.g.g.g.g.g.g.",
"b.g.g.g.g.g.g.g.g.g.g.g.g.g.g.g.g.g.g.g.g.g.g.g.g.g.g.g.g.g.g.g.g.g.g.g.g.g.g.g.g.g.g.g.g.g.g.g.g.g.g.g.g.g.g.g.g.g.g.g.g.g.g.g.",
"m.g.g.g.g.g.g.g.g.g.g.g.g.g.g.g.g.g.g.g.g.g.g.g.g.g.g.g.g.g.g.g.g.g.g.g.g.g.g.g.g.g.g.g.g.g.g.g.g.g.g.g.g.g.g.g.g.g.g.g.g.g.g.g.",
"m.g.g.g.g.g.g.g.g.g.g.g.g.g.g.g.g.g.g.g.g.g.g.g.g.g.g.g.g.g.g.g.g.g.g.g.g.g.g.g.g.g.g.g.g.g.g.g.g.g.g.g.g.g.g.g.g.g.g.g.g.g.g.g.",
"m.g.g.g.g.g.g.g.g.g.g.g.g.g.g.g.g.g.g.g.g.g.g.g.g.g.g.g.g.g.g.g.g.g.g.g.g.g.g.g.g.g.g.g.g.g.g.g.g.g.g.g.g.g.g.g.g.g.g.g.g.g.g.g.",
"n.g.g.g.g.g.g.g.g.g.g.g.g.g.g.g.g.g.g.g.g.g.g.g.g.g.g.g.g.g.g.g.g.g.g.g.g.g.g.g.g.g.g.g.g.g.g.g.g.g.g.g.g.g.g.g.g.g.g.g.g.g.g.g.",
"b.f.g.g.g.g.g.g.g.g.g.g.g.g.g.g.g.g.g.g.g.g.g.g.g.g.g.g.g.g.g.g.g.g.g.g.g.g.g.g.g.g.g.g.g.g.g.g.g.g.g.g.g.g.g.g.g.g.g.g.g.g.g.g.",
"M.g.g.g.g.g.g.g.g.g.g.g.g.g.g.g.g.g.g.g.g.g.g.g.g.g.g.g.g.g.g.g.g.g.g.g.g.g.g.g.g.g.g.g.g.g.g.g.g.g.g.g.g.g.g.g.g.g.g.g.g.g.g.g.",
"N.g.g.g.g.g.g.g.g.g.g.g.g.g.g.g.g.g.g.g.g.g.g.g.g.g.g.g.g.g.g.g.g.g.g.g.g.g.g.g.g.g.g.g.g.g.g.g.g.g.g.g.g.g.g.g.g.g.g.g.g.g.g.g.",
"N.g.g.g.g.g.g.g.g.g.g.g.g.g.g.g.g.g.g.g.g.g.g.g.g.g.g.g.g.g.g.g.g.g.g.g.g.g.g.g.g.g.g.g.g.g.g.g.g.g.g.g.g.g.g.g.g.g.g.g.g.g.g.g.",
"M.g.g.g.g.g.g.,.g.g.g.g.g.g.g.g.g.g.g.g.g.g.g.g.g.g.g.g.g.g.g.g.g.g.g.g.g.g.g.g.g.g.g.g.g.g.g.g.g.g.g.g.g.g.g.g.g.g.g.g.g.g.g.g.",
"N.g.g.g.g.g.g.M.g.g.g.g.g.g.g.g.g.g.g.g.g.g.g.g.g.g.g.g.g.g.g.g.g.g.g.g.g.g.g.g.g.g.g.g.g.g.g.g.g.g.g.g.g.g.g.g.g.g.g.g.g.g.g.g.",
"m.g.g.g.g.g.g.,.g.g.g.g.g.g.g.g.g.g.g.g.g.g.g.g.g.g.g.g.g.g.g.g.g.g.g.g.g.g.g.g.g.g.g.g.g.g.g.g.g.g.g.g.g.g.g.g.g.g.g.g.g.g.g.g.",
"m.g.g.g.g.g.g.g.g.g.g.g.g.g.g.g.g.g.g.g.g.g.g.g.g.g.g.g.f.g.g.g.g.g.g.g.g.g.g.g.g.g.g.g.g.g.g.g.g.g.g.g.g.g.g.g.g.g.g.g.g.g.g.g.",
"n.g.g.g.g.g.g.g.g.g.g.g.g.g.g.g.g.g.g.g.g.g.g.g.k.D.5.} } | S.v.g.g.g.g.g.g.g.g.g.g.g.g.g.g.g.g.g.g.g.g.g.g.g.g.g.g.g.g.g.g.g.g.",
"b.g.g.g.g.g.g.g.g.g.g.g.g.g.g.g.g.g.g.g.g.g.g.M.A.8.K P K K 1.H.n.g.g.g.g.g.g.g.g.g.g.g.g.g.g.g.g.g.g.g.g.g.g.g.g.g.g.g.g.g.g.g.",
"b.g.g.g.g.g.g.g.g.g.g.g.g.g.g.g.g.g.g.g.g.g.g.,.8.1.E Q Q Q P 1.O.-.x.n.g.g.g.g.g.g.g.g.g.g.g.g.g.g.g.g.g.g.g.g.g.g.g.g.g.g.g.g.",
"n.g.g.g.g.g.g.g.g.g.g.g.g.g.g.g.g.g.g.g.g.g.M.x.[ L W W R J ( b v (.y.V.b.k.g.g.g.g.g.g.g.g.g.g.g.g.g.g.g.g.g.g.g.g.g.g.g.g.g.g.",
"m.g.g.g.g.g.g.g.g.g.g.g.g.g.g.g.g.g.g.g.g.g.g.8.K J T Y B ! U.[.+X;X#Xu.A.n.g.g.g.g.g.g.g.g.g.g.g.g.g.g.g.g.g.g.g.g.g.g.g.g.g.g.",
"B.g.g.g.g.g.g.g.g.g.g.g.g.g.g.g.g.g.g.g.g.g.d.' E T Y A ! W.{.%X-X>X<X$Xu.A.v.g.g.g.g.g.g.g.g.g.g.g.g.g.g.g.g.g.g.g.g.g.g.g.g.g.",
"N.g.g.g.g.g.g.g.g.g.g.g.g.g.g.g.g.g.g.g.g.c.x.` E T A ! m [.XX=X>X,X,X<X#Xu.C.g.g.g.g.g.g.g.g.g.g.g.g.g.g.g.g.g.g.g.g.g.g.g.g.g.",
"9.,.,.g.g.g.g.g.g.g.g.g.g.g.g.g.g.g.g.g.g.j.t.K E T B h I.[.XX=X>X,X>X,X1X'.3.g.g.g.g.g.g.g.g.g.g.g.g.g.g.g.g.g.g.g.g.g.g.g.g.>.",
"1.s.c.,.c.g.g.g.g.g.g.g.g.g.g.g.g.g.g.g.g.,.{ I W A B h R.[.XX}.*X@X=X@X;X(.| ,.g.g.g.g.g.g.g.g.g.g.g.g.g.g.g.g.g.g.g.g.g.g.g.{ ",
"x.f.c.,.g.g.g.g.g.g.g.g.g.g.g.g.g.g.g.g.g.d.*.P H B : h R.^.[.q ).s ).c M v } g.g.g.g.g.g.g.g.g.g.g.g.g.g.g.g.g.g.g.g.g.g.g.g.g.",
"m.c.,.c.g.g.g.g.g.g.g.g.g.g.g.g.g.g.g.g.g.c.V.4 D N . q I.R.~.s T.e T.l z v } f.g.g.g.g.g.g.g.g.g.g.g.g.g.g.g.g.g.g.g.g.g.g.g.g.",
"N.c.g.g.g.g.g.g.g.g.g.g.g.g.g.g.g.g.g.g.g.g.,.4 N # 0 0 f I.R.E.{.z M l l #.3.g.g.g.g.g.g.g.g.g.g.g.g.g.g.g.g.g.g.g.g.g.g.g.g.g.",
"8.,.g.g.g.g.g.g.g.g.g.g.g.g.g.g.g.g.g.g.g.c.s.5 $ ; #X:Xt s R.R.^.[.[.].#.e.F.g.g.g.g.g.g.g.g.g.g.g.g.g.g.g.g.g.g.g.g.g.g.g.g.6.",
"1.6.g.g.g.g.g.g.g.g.g.g.g.g.g.g.g.g.g.g.g.k.A.5 $ O _.c > V j U.U.Y.P.@.e.F.k.g.g.g.g.g.g.g.g.g.g.g.g.g.g.g.g.g.g.g.g.g.g.g.g...",
"b.c.g.g.g.g.g.g.g.g.g.g.g.g.g.g.g.g.g.g.g.h.{ < #   6 8 a > V F ^ , , +.C.k.g.g.g.g.g.g.g.g.g.g.g.g.g.g.g.g.g.g.g.g.g.g.g.g.g.g.",
"m.,.g.g.g.g.g.g.g.g.g.g.g.g.g.g.g.g.g.g.k.V.1 X   o 8 d p a n U.W.|.v | j.g.g.g.g.g.g.g.g.g.g.g.g.g.g.g.g.g.g.g.g.g.g.g.g.g.g.g.",
"m.c.g.g.g.g.g.g.g.g.g.g.g.g.g.g.g.g.g.g.d.[ , @ & 6 9 p d L.].{.]. X@.| f.g.g.g.g.g.g.g.g.g.g.g.g.g.g.g.g.g.g.g.g.g.g.g.g.g.g.g.",
"N.g.g.g.g.g.g.g.g.g.g.g.g.g.g.g.g.g.g.g.>.2 * % 6 L.d 9 d P.^.XX&X.X#.5.f.g.g.g.g.g.g.g.g.g.g.g.g.g.g.g.g.g.g.g.g.g.g.g.g.g.g.g.",
"v.g.g.g.g.g.g.g.g.g.g.g.g.g.g.g.g.g.g.g.>.2 * % f E.L.d d P.^. X@XQ.w.S.g.g.g.g.g.g.g.g.g.g.g.g.g.g.g.g.g.g.g.g.g.g.g.g.g.g.g.g.",
"b.g.g.g.g.g.g.g.g.g.g.g.g.g.g.g.g.g.g.g.>.2 * = g ].L.d d P.L.L.I.y w.F.k.g.g.g.g.g.g.g.g.g.g.g.g.g.g.g.g.g.g.g.g.g.g.g.g.g.g.g.",
"N.g.g.g.g.g.g.g.g.g.g.g.g.g.g.g.g.g.g.g.>.2 * = g f d d d d P.R.^.}.q.i.D.k.k.g.g.g.g.g.g.g.g.g.g.g.g.g.g.g.g.g.g.g.g.g.g.g.g.g.",
"m.g.g.g.g.g.g.g.g.g.g.g.g.g.g.g.g.g.g.g.>.2 * % 7 g a p a a f R.[.OX@X#.i.t.9.G.f.g.f.g.g.f.f.f.,.g.g.g.f.g.g.g.g.g.g.g.g.g.g.g.",
"m.g.g.g.g.g.g.g.g.g.g.g.g.g.g.g.g.g.g.g.>.2 * . % s r C F ~ ^ / E.[.+Xl 3 *.4. .[ [ [ [ [ [ [ [ [ [ [ ] O.C.z.g.g.g.g.g.g.g.g.g.",
"n.g.g.g.g.g.g.g.g.g.g.g.g.g.g.g.g.g.g.g.d.` ; . O - N A Y Y T _ ~ h L.E.w K 2./.Q.Q.Q.Q.Q.Q.Q.Q.Q.Q.Q.oX$Xe.h.g.g.g.g.g.g.g.g.g.",
"b.g.g.g.g.g.g.g.g.g.g.g.g.g.g.g.g.g.g.g.k.7.5 ; O . N A Y Y Y T Z G / !.) U p.|..X.X.X.X.X.XXXXX.XOX-X,X`.Z.z.f.g.g.g.g.g.g.g.g.",
"N.g.g.g.g.g.g.g.g.g.g.g.g.g.g.g.g.g.g.g.g.S.7.5 & 7 t C H Y H ~ C T / !.2.:.a.#X*X*X*X*X*X*X*X-X<X<X,X`.Z.C.k.g.g.g.g.g.g.g.g.g.",
"N.g.g.g.g.g.g.g.g.g.g.g.g.g.g.g.g.g.g.g.g.k.S.7.3 k g t B A $ h w r /.s , S =.b @.@.@.@.$.o.@.#.#.q.u.i.C.v.g.g.g.g.g.g.g.g.g.g.",
"n.g.g.g.g.g.g.g.g.g.g.g.g.g.g.g.g.g.g.g.g.g.g.x.` L.R.Y.- N @ + a L.!.v X.<.4.3.| ;.O.| -.-.| ;.;.-.s.x.g.g.g.g.g.g.g.g.g.g.g.g.",
"b.g.g.g.g.g.g.g.g.g.g.g.g.g.g.g.g.g.g.g.g.g.g.d.` M {.+X0 .   6 z !.&.$.V.C.h.S.g.g.g.g.g.g.g.g.g.g.g.g.g.g.g.g.g.g.g.g.g.g.g.g.",
"N.g.g.g.g.g.g.g.g.g.g.g.g.g.g.g.g.g.g.g.g.g.k.C.` M ^.&.Q.+ 8 8 d x $.V.n.g.g.g.g.g.g.g.g.g.g.g.g.g.g.g.g.g.g.g.g.g.g.g.g.g.g.g.",
"N.g.g.g.g.g.g.g.g.g.g.g.g.g.g.g.g.g.g.g.g.g.f.e.u I.~.8 v k k L.e X.V.n.g.g.g.g.g.g.g.g.g.g.g.g.g.g.g.g.g.g.g.g.g.g.g.g.g.g.g.g.",
"m.,.g.g.g.g.g.g.g.g.g.g.g.g.g.g.g.g.g.g.g.k.x. .k L.{.y  .i P.^.u r.G.j.g.g.g.g.g.g.g.g.g.g.g.g.g.g.g.g.g.g.g.g.g.g.g.g.g.g.g.g.",
"N.g.g.g.g.g.g.g.g.g.g.g.g.g.g.g.g.g.g.g.g.j.e.u g I./.w.H.e.X.!.M +.x.g.g.g.g.g.g.g.g.g.g.g.g.g.g.g.g.g.g.g.g.g.g.g.g.g.g.g.g.g.",
"S.g.g.g.g.g.g.g.g.g.g.g.g.g.g.g.g.g.g.g.g.d. .M R.~.u Z.C.G.l.$.%.+.d.g.g.g.g.g.g.g.g.g.g.g.g.g.g.g.g.g.g.g.g.g.g.g.g.g.g.g.g.g.",
"K.M.g.g.g.g.g.g.g.g.g.g.g.g.g.g.g.g.g.g.g.f.O.v Y.~.%.r.z.g.G.O.} l.n.g.g.g.g.g.g.g.g.g.g.g.g.g.g.g.g.g.g.g.g.g.g.g.g.g.g.g.g.g.",
"m.g.g.g.g.g.g.g.,.g.g.g.g.g.g.g.g.g.g.g.g.k.J.+.%.x (.r.h.g.g.g.g.g.g.g.g.g.g.g.g.g.g.g.g.g.g.g.g.g.g.g.g.g.g.g.g.g.g.g.g.g.g.g.",
"8.f.g.g.g.g.g.g.M.,.g.g.g.g.g.g.g.g.g.g.g.g.c.G.} ] } V.v.g.g.g.g.g.g.g.g.g.g.g.g.g.g.g.g.g.g.g.g.g.g.g.g.g.g.g.g.g.g.g.g.g.g.6.",
"0.s.g.g.g.g.g.g.g.g.g.g.g.g.g.g.g.g.g.g.g.g.g.g.g.g.,.g.g.g.g.g.g.g.g.g.g.g.g.g.g.g.g.g.g.g.g.g.g.g.g.g.g.g.g.g.g.g.g.g.g.g.g...",
"K.c.g.g.g.g.g.g.g.g.g.g.g.g.g.g.g.g.g.g.g.g.g.g.g.g.g.g.g.g.g.g.g.g.g.g.g.g.g.g.g.g.g.g.g.g.g.g.g.g.g.g.g.g.g.g.g.g.g.g.g.g.g.g.",
"m.g.g.g.g.g.g.g.g.g.g.g.g.g.g.g.g.g.g.g.g.g.g.g.g.g.g.g.g.g.g.g.g.g.g.g.g.g.g.g.g.g.g.g.g.g.g.g.g.g.g.g.g.g.g.g.g.g.g.g.g.g.g.g.",
"m.g.g.g.g.g.g.g.g.g.g.g.g.g.g.g.g.g.g.g.g.g.g.g.g.g.g.g.g.g.g.g.g.g.g.g.g.g.g.g.g.g.g.g.g.g.g.g.g.g.g.g.g.g.g.g.g.g.g.g.g.g.g.g.",
"m.g.g.g.g.g.g.g.g.g.g.g.g.g.g.g.g.g.g.g.g.g.g.g.g.g.g.g.g.g.g.g.g.g.g.g.g.g.g.g.g.g.g.g.g.g.g.g.g.g.g.g.g.g.g.g.g.g.g.g.g.g.g.g.",
"m.g.g.g.g.g.g.g.g.g.g.g.g.g.g.g.g.g.g.g.g.g.g.g.g.g.g.g.g.g.g.g.g.g.g.g.g.g.g.g.g.g.g.g.g.g.g.g.g.g.g.g.g.g.g.g.g.g.g.g.g.g.g.g.",
"N.g.g.g.g.g.g.g.g.g.g.g.g.g.g.g.g.g.g.g.g.g.g.g.g.g.g.g.g.g.g.g.g.g.g.g.g.g.g.g.g.g.g.g.g.g.g.g.g.g.g.g.g.g.g.g.g.g.g.g.g.g.g.g.",
"N.g.g.g.g.g.g.g.g.g.g.g.g.g.g.g.g.g.g.g.g.g.g.g.g.g.g.g.g.g.g.g.g.g.g.g.g.g.g.g.g.g.g.g.g.g.g.g.g.g.g.g.g.g.g.g.g.g.g.g.g.g.g.g.",
"m.g.g.g.g.g.g.g.g.g.g.g.g.g.g.g.g.g.g.g.g.g.g.g.g.g.g.g.g.g.g.g.g.g.g.g.g.g.g.g.g.g.g.g.g.g.g.g.g.g.g.g.g.g.g.g.g.g.g.g.g.g.g.g.",
"m.,.g.g.g.g.g.g.g.g.g.g.g.g.g.g.g.g.g.g.g.g.g.g.g.g.g.g.g.g.g.g.g.g.g.g.g.g.g.g.g.g.g.g.g.g.g.g.g.g.g.g.g.g.g.g.g.g.g.g.g.g.g.g.",
"N.c.g.g.g.M.g.g.g.g.g.g.g.g.g.g.g.g.g.g.g.g.g.g.g.g.g.g.g.g.g.g.g.g.g.g.g.g.g.g.g.g.g.g.g.g.g.g.g.g.g.g.g.g.g.g.g.g.g.g.g.g.g.g.",
"K.c.c.;.-.B.M.g.g.g.g.g.g.M.c.g.g.g.M.g.g.g.g.g.g.M.c.g.g.g.g.g.g.g.g.g.g.g.g.g.g.M.M.,.M.M.g.g.g.g.g.g.g.g.g.g.g.g.g.6.3.f.g.g."
};
